<svg id="Camada_1" data-name="Camada 1" xmlns="http://www.w3.org/2000/svg" viewBox="0 0 2000 2000"><defs><style>.cls-1{fill:#fff;}.cls-2{fill:#64b4f5;}.cls-3{fill:#0d47a0;}</style></defs><path class="cls-1" d="M459.81,679.54q-.75,7.29-1.31,14.63c.34-4.84.73-9.65,1.2-14.45A1.74,1.74,0,0,1,459.81,679.54Z"/><path class="cls-2" d="M382.68,641a47.69,47.69,0,0,0,24.16,6.81c13.78,0,21.83-7.28,21.83-17.81,0-9.75-5.57-15.33-19.66-20.75-17-6-27.57-14.87-27.57-29.58,0-16.26,13.47-28.34,33.76-28.34,10.69,0,18.43,2.47,23.08,5.11l-3.72,11a41.59,41.59,0,0,0-19.82-4.95c-14.25,0-19.67,8.51-19.67,15.64,0,9.76,6.35,14.56,20.75,20.13,17.66,6.82,26.64,15.34,26.64,30.67,0,16.11-11.93,30.05-36.55,30.05-10.07,0-21.07-3-26.64-6.66Z"/><path class="cls-2" d="M460.42,547.44h13.63v46.78h.31a25.33,25.33,0,0,1,9.76-9.61,28.1,28.1,0,0,1,13.94-3.87c10.06,0,26.17,6.2,26.17,32.06v44.61H510.6V614.35c0-12.08-4.49-22.3-17.34-22.3-8.83,0-15.8,6.19-18.28,13.63a16.57,16.57,0,0,0-.93,6.5v45.23H460.42Z"/><path class="cls-2" d="M587.88,657.41,586.8,648h-.46c-4.19,5.88-12.24,11.15-22.93,11.15-15.17,0-22.92-10.69-22.92-21.53,0-18.12,16.11-28,45.07-27.88v-1.54c0-6.2-1.7-17.35-17-17.35A37.43,37.43,0,0,0,549,596.38l-3.1-9c6.2-4,15.18-6.66,24.63-6.66,22.92,0,28.5,15.64,28.5,30.67v28a106.57,106.57,0,0,0,1.23,18Zm-2-38.26c-14.87-.31-31.75,2.32-31.75,16.88,0,8.83,5.89,13,12.86,13A18.65,18.65,0,0,0,585.1,636.5a14.38,14.38,0,0,0,.77-4.34Z"/><path class="cls-2" d="M621,605.83c0-8.83-.16-16.41-.62-23.38h11.92l.47,14.71h.62c3.4-10.07,11.61-16.42,20.75-16.42a14.7,14.7,0,0,1,3.87.47v12.85a20.45,20.45,0,0,0-4.64-.46c-9.61,0-16.42,7.28-18.28,17.5a38.38,38.38,0,0,0-.62,6.35v40H621Z"/><path class="cls-2" d="M677.71,622.4c.31,18.43,12.08,26,25.71,26,9.76,0,15.64-1.7,20.75-3.87l2.33,9.76c-4.8,2.17-13,4.65-24.94,4.65-23.07,0-36.86-15.18-36.86-37.79s13.32-40.43,35.16-40.43c24.47,0,31,21.53,31,35.31a52.5,52.5,0,0,1-.46,6.35Zm40-9.75c.15-8.68-3.56-22.15-18.9-22.15-13.78,0-19.82,12.7-20.9,22.15Z"/><path class="cls-2" d="M794.49,564.48H762.74V553H840v11.46h-31.9v92.93H794.49Z"/><path class="cls-2" d="M847.76,622.4c.31,18.43,12.08,26,25.71,26,9.76,0,15.64-1.7,20.76-3.87l2.32,9.76c-4.8,2.17-13,4.65-24.94,4.65-23.07,0-36.86-15.18-36.86-37.79s13.32-40.43,35.16-40.43c24.47,0,31,21.53,31,35.31a50.09,50.09,0,0,1-.47,6.35Zm40-9.75c.16-8.68-3.56-22.15-18.89-22.15-13.79,0-19.83,12.7-20.91,22.15Z"/><path class="cls-2" d="M971.2,654.62c-3.57,1.86-11.46,4.34-21.53,4.34-22.61,0-37.33-15.34-37.33-38.26,0-23.08,15.8-39.8,40.27-39.8,8.06,0,15.18,2,18.9,3.87l-3.1,10.53c-3.25-1.86-8.36-3.56-15.8-3.56-17.19,0-26.48,12.7-26.48,28.34,0,17.35,11.15,28,26,28a38.76,38.76,0,0,0,16.72-3.71Z"/><path class="cls-2" d="M987.15,547.44h13.63v46.78h.31a25.3,25.3,0,0,1,9.75-9.61,28.1,28.1,0,0,1,13.94-3.87c10.07,0,26.18,6.2,26.18,32.06v44.61h-13.63V614.35c0-12.08-4.49-22.3-17.35-22.3-8.83,0-15.8,6.19-18.27,13.63a16.39,16.39,0,0,0-.93,6.5v45.23H987.15Z"/><path class="cls-2" d="M1194.37,611.56c-.77-14.56-1.7-32.06-1.55-45.07h-.46c-3.57,12.24-7.9,25.25-13.17,39.65l-18.43,50.65h-10.22l-16.88-49.72c-5-14.71-9.14-28.19-12.08-40.58h-.31c-.31,13-1.09,30.51-2,46.16l-2.78,44.76h-12.86L1110.89,553h17.19l17.81,50.49c4.34,12.85,7.9,24.31,10.53,35.16h.47c2.63-10.54,6.35-22,11-35.16L1186.47,553h17.19l6.51,104.39H1197Z"/><path class="cls-2" d="M1299.22,619.31c0,27.72-19.21,39.8-37.33,39.8-20.29,0-35.93-14.87-35.93-38.56,0-25.09,16.42-39.81,37.17-39.81C1284.66,580.74,1299.22,596.38,1299.22,619.31Zm-59.48.77c0,16.42,9.45,28.81,22.77,28.81,13,0,22.77-12.24,22.77-29.12,0-12.7-6.35-28.81-22.46-28.81S1239.74,605.83,1239.74,620.08Z"/><path class="cls-2" d="M1316.41,602.73c0-7.74-.16-14.09-.62-20.28h12.08l.77,12.39h.31c3.72-7.13,12.39-14.1,24.78-14.1,10.38,0,26.49,6.2,26.49,31.91v44.76h-13.63V614.2c0-12.08-4.49-22.15-17.35-22.15-9,0-16,6.35-18.28,13.94a19.83,19.83,0,0,0-.92,6.35v45.07h-13.63Z"/><path class="cls-2" d="M1470.2,619.31c0,27.72-19.21,39.8-37.33,39.8-20.29,0-35.93-14.87-35.93-38.56,0-25.09,16.42-39.81,37.17-39.81C1455.64,580.74,1470.2,596.38,1470.2,619.31Zm-59.48.77c0,16.42,9.45,28.81,22.77,28.81,13,0,22.77-12.24,22.77-29.12,0-12.7-6.35-28.81-22.46-28.81S1410.72,605.83,1410.72,620.08Z"/><path class="cls-3" d="M585,1053.9q-8.16-7.45-8.16-22.35v-63.1q0-14.9,8.16-22.35t23.4-7.45h24.71V952H606.61a14.57,14.57,0,0,0-10.51,3.86,12.4,12.4,0,0,0-4,9.29v69.76a12.4,12.4,0,0,0,4,9.29,14.57,14.57,0,0,0,10.51,3.86h17.18v-38H608.54V996.84h29.8v64.51h-30Q593.12,1061.35,585,1053.9Z"/><path class="cls-3" d="M664.11,1048.55v-97.1H648.34v-12.8h46.8v12.8H679.36v97.1h15.78v12.8h-46.8v-12.8Z"/><path class="cls-3" d="M767.1,1053.9q-8.15,7.45-23.4,7.45h-7q-15.24,0-23.4-7.45t-8.15-22.35v-63.1q0-14.9,8.15-22.35t23.4-7.45h7q15.25,0,23.4,7.45t8.15,22.35v63.1Q775.25,1046.45,767.1,1053.9ZM756,955.83A14.58,14.58,0,0,0,745.46,952H734.94a14.59,14.59,0,0,0-10.52,3.86,12.39,12.39,0,0,0-4,9.29v69.76a12.39,12.39,0,0,0,4,9.29,14.59,14.59,0,0,0,10.52,3.86h10.52a14.58,14.58,0,0,0,10.51-3.86,12.39,12.39,0,0,0,4-9.29V965.12A12.39,12.39,0,0,0,756,955.83Z"/><path class="cls-3" d="M800.5,1010.52v50.83H785.25V938.65h33q14.89,0,22.52,6.57T848.36,966v16.83q0,19.81-15.78,24.72L857,1061.35H840.29l-22.61-50.83ZM830,954.78q-3.07-3-9.73-3H800.5v45.57h19.81q6.66,0,9.73-3.07t3.07-9.73V964.42Q833.11,957.76,830,954.78Z"/><path class="cls-3" d="M925.93,1055q-6.93,6.32-22.88,6.31H867V938.65h34q15.78,0,23.84,6.4T932.85,966v67.66Q932.85,1048.74,925.93,1055ZM914.1,955.21a12.78,12.78,0,0,0-9.29-3.41H882.2v96.4h22.43q6.66,0,9.82-3.06t3.15-9.73v-71A12.3,12.3,0,0,0,914.1,955.21Z"/><path class="cls-3" d="M965.29,1030.32l-6.84,31h-15.6l29.63-122.7h20.15l29.1,122.7h-15.6l-6.66-31Zm31.37-13.14-14.37-67-14.2,67Z"/><path class="cls-3" d="M1045.93,1061.35h-14.2V938.65h24.89l27.7,109.73V938.65h14.19v122.7h-25.06l-27.52-109.73Z"/><path class="cls-3" d="M1167.06,938.65v12.8h-43.3v40.14h38.92v12.79h-38.92v44.17h43.3v12.8h-58.55V938.65Z"/><path class="cls-3" d="M1194.59,1043.82v17.53h-17.53v-17.53Z"/><path class="cls-3" d="M1263.57,1055q-6.93,6.32-22.87,6.31h-36.11V938.65h34q15.78,0,23.84,6.4t8.06,20.94v67.66Q1270.49,1048.74,1263.57,1055Zm-11.83-99.83a12.77,12.77,0,0,0-9.29-3.41h-22.61v96.4h22.43q6.66,0,9.82-3.06t3.16-9.73v-71A12.27,12.27,0,0,0,1251.74,955.21Z"/><path class="cls-3" d="M1339,938.65v12.8h-43.3v40.14h38.92v12.79h-38.92v44.17H1339v12.8h-58.55V938.65Z"/><path class="cls-3" d="M1349,938.65h15.43l21,107.27,22.61-107.27h15.08l-27.52,122.7h-20.86Z"/></svg>